<svg width="318" height="304" viewBox="0 0 318 304" fill="none" xmlns="http://www.w3.org/2000/svg">
<mask id="mask0_696_488" style="mask-type:luminance" maskUnits="userSpaceOnUse" x="0" y="0" width="182" height="193">
<path d="M0 0H181.714V192.244H0V0Z" fill="white"/>
</mask>
<g mask="url(#mask0_696_488)">
<path d="M69.4835 190.738C68.8821 183.623 66.7181 172.903 66.9054 168.014C71.8397 174.302 68.5272 182.888 72.2242 189.643C76.7148 184.496 80.3132 178.993 83.4039 173.05C87.4705 166.046 89.7035 158.216 94.2434 151.436C93.9822 141.572 93.4399 131.652 93.016 121.844C96.5701 130.121 96.0081 140.061 96.5158 149.093C94.7018 158.145 88.3184 166.234 85.1981 175.261C80.742 180.119 77.5922 194.745 69.9321 191.864L69.4835 190.738ZM72.8502 172.416C74.0973 178.091 74.3536 165.95 72.8502 172.416V172.416ZM148.195 172.345C139.49 166.452 128.887 163.84 120.423 157.719C109.569 148.631 98.6601 137.687 94.968 123.726C99.8628 129.487 103.52 138.717 109.14 144.995C116.031 153.839 125.293 160.919 136.167 164.175C139.598 165.782 151.69 172.679 143.502 165.123C137.114 157.825 129.355 152.866 121.335 147.764C111.24 139.69 104.62 128.462 96.994 118.264C94.3321 115.449 91.6802 108.679 97.2207 114.78C103.328 121.991 107.863 130.329 113.921 137.606C119.886 146.379 130.104 150 138.376 155.599C142.758 159.19 148.826 167.882 150.748 169.936C145.898 162.232 143.512 153.282 138.178 145.928C128.551 134.087 116.775 123.34 102.761 116.92C102.318 114.755 87.6529 108.963 95.8109 110.013C107.134 116.438 118.87 122.473 128.556 131.348C137.789 139.559 145.385 149.777 150.723 160.833C151.473 164.641 158.349 178.557 148.195 172.345ZM76.9662 169.981C79.3766 161.492 81.1019 168.323 76.9662 169.981V169.981ZM83.1525 169.251C85.4495 152.749 88.7916 135.745 84.5524 119.268C84.7496 108.75 80.8209 128.209 78.7703 131.946C75.7486 142.307 71.6721 153.85 76.2317 164.317C75.236 171.863 71.3813 156.542 72.4164 153.667C74.5212 145.061 70.7454 141.328 75.0881 134.005C76.0888 129.857 81.7279 119.055 80.047 119.699C74.048 131.556 70.2475 144.391 67.3146 157.268C65.4957 150.781 68.6455 141.536 70.7355 134.421C72.3228 128.462 78.7802 114.577 81.9793 117.331C85.9425 115.018 76.7246 111.154 82.1124 111.276C87.3522 111.869 88.3529 114.212 86.2481 116.646C89.3535 128.736 88.1656 141.455 87.7466 153.799C86.9875 158.738 85.8291 166.462 83.1525 169.251ZM18.6721 167.238C18.7658 158.338 24.6119 149.569 28.6293 141.617C27.8111 149.955 22.9656 157.47 21.2452 165.453C29.1173 162.76 37.0486 159.235 45.2214 157.039C49.3078 155.412 61.3501 146.765 51.3042 154.803C43.6884 160.092 34.7072 162.811 26.3372 166.69C23.9859 167.197 20.7819 169.525 18.6721 167.238ZM81.0624 163.49C80.4068 168.546 85.5777 157.192 81.0624 163.49V163.49ZM24.1535 160.919C27.4019 155.285 28.028 159.996 24.1535 160.919V160.919ZM31.0151 157.298C33.9431 159.139 34.1502 152.688 31.0151 157.298V157.298ZM28.2695 155.27C32.1291 147.379 32.9277 155.655 28.2695 155.27V155.27ZM35.8261 153.327C41.3913 146.836 50.9591 145.801 56.618 139.107C63.1099 136.642 65.4119 124.71 70.7109 118.183C73.7917 113.872 74.2403 110.16 68.7835 115.099C56.0117 122.397 43.8215 131.911 36.7528 144.98C32.5432 141.486 44.1764 133.047 44.625 128.802C52.7633 119.968 64.4457 115.323 74.9107 109.947C77.2866 116.459 67.4329 125.384 65.0915 132.565C61.3255 141.161 51.7429 145.071 43.8609 149.397C40.8885 148.296 39.0647 155.701 35.8261 153.327ZM35.1262 148.007C31.5573 153.271 40.5681 143.631 35.1262 148.007V148.007ZM80.8061 148.175C82.5659 139.3 83.0785 153.697 80.8061 148.175V148.175ZM55.43 148.347C62.0452 139.614 67.6449 130.268 72.9439 120.713C76.7986 117.737 78.9823 108.978 75.6008 107.898C83.2806 111.666 74.329 121.687 71.7263 127.326C67.4625 135.233 62.7944 142.85 55.43 148.347ZM79.0266 146.633C79.3569 152.891 80.8554 140.187 79.0266 146.633V146.633ZM109.169 143.778C102.254 135.38 97.8615 125.257 92.4639 116.053C98.8819 118.523 100.671 129.441 105.172 135.359C105.862 137.175 117.712 153.271 109.169 143.778ZM92.4492 144.716C91.5767 147.85 95.042 141.298 92.4492 144.716V144.716ZM142.496 141.541C136.586 135.116 133.51 126.637 125.091 122.23C121.557 120.176 115.43 115.409 119.649 114.932C113.522 114.182 103.649 109.374 101.81 105.763C113.512 109.922 124.933 115.525 137.557 116.443C144.266 119.785 153.213 117.214 159.167 116.55C150.551 120.358 140.5 120.653 131.139 120.039C118.801 116.95 136.024 125.242 136.981 129.527C136.059 135.466 144.779 138.428 143.512 142.819L142.95 142.393L142.496 141.541ZM140.421 118.142C138.839 117.143 125.594 117.65 133.318 117.99C135.112 117.787 140.298 119.567 140.421 118.142ZM128.547 116.986C124.362 116.301 129.803 118.315 128.547 116.986V116.986ZM121.443 140.299C114.927 132.403 121.833 137.895 124.007 139.193C122.937 135.314 110.924 130.182 115.661 128.097C119.541 130.369 133.012 140.421 123.031 141.587L121.443 140.299ZM81.4765 140.872C81.8807 136.587 83.5813 129.558 83.044 137.621C82.9997 138.24 82.7778 142.53 81.4765 140.872ZM92.5182 140.339C90.5908 133.402 94.7068 136.921 92.5182 140.339V140.339ZM79.4456 138.879C77.3014 135.415 84.1827 123.234 81.7525 132.185C81.3286 132.611 80.5794 141.866 79.4456 138.879ZM33.7558 135.359C41.1104 124.253 52.9111 116.702 64.7513 110.89C73.8213 110.332 56.6623 117.29 54.0054 120.1C46.7002 123.919 39.9963 132.59 33.7558 135.359ZM55.3265 132.753C49.4261 130.506 57.6236 123.66 60.4579 125.308C56.756 128.133 54.2667 132.19 60.172 127.134C66.7033 123.148 53.9315 137.616 55.3265 132.753ZM91.7344 132.073C90.1324 127.179 86.7065 117.833 90.8176 117.447C91.0196 120.242 93.9624 133.483 91.7344 132.073ZM114.695 132.56C112.674 129.426 118.372 133.858 114.695 132.56V132.56ZM131.115 129.177C124.667 121.52 139.036 134.655 131.115 129.177V129.177ZM114.217 119.664C106.493 116.038 98.9706 106.017 90.1817 109.556C94.3321 102.391 105.433 111.255 111.156 114.237C114.542 116.484 127.541 123.579 118.688 121.221C117.544 122.346 115.405 120.029 114.217 119.664ZM163.983 115.028C172.467 113.355 160.419 117.645 162.657 115.602L163.983 115.028ZM30.8426 114.881C26.697 112.082 40.4498 114.014 43.1264 112.954C51.176 111.93 59.2009 109.638 66.3386 105.778C63.2183 106.711 52.4281 109.967 60.1671 106.23C54.2963 105.763 55.9772 104.805 60.872 103.826C65.3724 103.07 75.6402 101.544 65.9048 99.3479C55.9229 94.2055 44.9799 91.4518 33.9382 89.7833C30.5813 87.9627 18.3172 88.1757 28.2399 86.9231C42.5546 87.0702 55.6814 93.5209 69.1631 97.3498C65.6978 92.532 55.08 93.8556 52.1077 90.0318C63.0507 92.5574 44.9799 83.5709 50.1803 89.9608C46.8826 88.0236 33.9086 87.0955 36.6247 83.8448C45.5369 86.7355 55.5877 85.4372 63.8789 90.9345C67.1963 92.7754 72.8896 93.1862 70.4398 98.2018C75.5268 97.7098 73.6093 91.4873 68.1772 91.6547C55.3117 85.3053 42.8159 76.0603 36.5754 62.8951C43.7968 68.8844 51.1267 79.382 60.6009 84.5091C67.0731 88.2873 76.2366 93.313 76.7937 97.8569C80.7371 101.493 72.3425 110.992 70.1982 103.735C62.9521 105.652 73.1361 104.845 66.9153 108.324C56.2138 115.14 43.1511 115.581 30.8426 114.876V114.881ZM74.1762 103.552C73.0227 98.719 73.7079 109.967 74.1762 103.552V103.552ZM74.9107 99.4341C73.3283 101.934 73.6143 97.6794 74.9107 99.4341V99.4341ZM169.568 114.709C172.304 112.589 175.143 115.586 169.568 114.709V114.709ZM88.4663 112.584C87.3128 110.079 76.1183 109.384 84.5228 108.978C87.9733 105.149 92.3161 117.214 88.4663 112.584ZM174.374 114.151C178.796 109.272 163.865 111.894 160.306 111.189C151.956 110.53 167.276 107.051 170.115 109.272C174.034 110.201 183.055 111.387 173.98 108.781C166.187 107.929 163.737 100.753 154.499 100.834C149.033 95.6712 140.978 89.6718 132.312 90.7012C124.963 89.9405 115.089 95.7371 109.401 92.0959C114.483 84.6866 126.19 84.0578 127.97 75.0308C133.072 70.1015 130.577 73.4638 128.423 77.1101C136.838 80.0058 137.671 66.8102 142.186 62.2358C144.587 57.5803 147.5 56.0032 143.916 61.9873C138.77 69.3661 138.07 79.0676 129.02 83.2514C125.086 83.8854 115.548 89.5551 115.139 90.7875C123.775 90.9599 132.628 84.8641 140.747 89.2559C149.126 92.6131 155.116 100.372 164.363 100.58C169.253 103.298 183.41 105.226 181.507 111.925C179.836 113.248 176.39 115.368 174.374 114.151ZM125.436 111.666C116.248 111.174 107.745 106.605 99.4143 103.288C107.681 104.551 115.942 106.143 123.77 109.09C129.69 111.509 143.275 109.582 145.217 111.935C138.686 112.706 131.938 112.66 125.431 111.666H125.436ZM10.6571 108.699C2.4251 105.738 -4.74705 92.3139 6.17631 87.8917C14.9209 83.0131 24.3408 81.4968 33.8692 81.659C40.8442 79.7269 40.2724 84.6461 33.253 83.8194C23.8923 83.2058 15.1132 86.1776 7.01429 90.5694C2.32159 92.4965 1.53783 99.0081 7.74383 94.236C13.7477 93.8455 21.0973 89.8797 25.8541 91.2844C20.3382 95.6965 7.85721 92.2226 4.98835 97.5273C7.91143 94.3678 22.6254 95.5799 12.2936 97.5678C8.48323 99.2363 0.123113 99.6522 7.49737 103.912C11.3767 106.007 20.3037 114.892 10.6571 108.699ZM148.308 110.698C153.38 103.096 153.691 112.077 148.308 110.698V110.698ZM32.0453 108.527C27.678 107.492 15.5667 103.309 18.4651 99.0487C26.0513 104.911 35.3332 108.846 45.4284 106.752C48.8494 106.372 59.5312 104.145 50.9394 107.214C44.7827 108.476 38.3105 109.491 32.0453 108.527ZM70.7996 108.532C73.0622 105.778 74.6543 111.438 70.7996 108.532V108.532ZM133.905 106.813C127.166 107.543 125.845 99.074 133.791 101.321C137.863 100.129 146.76 104.642 140.682 105.717C143.32 108.704 134.994 107.873 133.905 106.813ZM138.854 104.972C134.851 103.08 126.402 104.115 135.063 105.018C135.452 105.312 140.15 106.737 138.854 104.972ZM94.7117 105.636C89.812 101.092 99.4783 98.8154 92.2717 97.578C89.7972 88.054 81.9694 97.4309 77.8781 96.1783C76.1923 88.8705 71.6721 80.2391 68.3004 72.4444C60.9361 59.188 53.9118 43.9892 39.1534 37.3761C32.5235 37.0668 27.0667 26.4829 23.3845 27.0661C30.4187 32.2997 34.791 41.2658 40.4646 47.5999C32.7404 43.7812 28.4519 36.2503 24.3014 29.0845C23.5669 37.1378 30.2412 46.4792 31.9468 55.1207C36.1613 66.5566 27.3033 50.2928 26.9238 46.398C26.49 40.1704 16.1237 27.2487 23.4092 24.1907C32.4101 26.8633 39.4048 33.5878 47.9424 37.3153C55.5877 42.9546 63.9479 48.5331 69.1779 56.5661C74.4128 68.3214 69.7595 49.6133 70.5581 45.3888C71.6967 36.9349 73.9839 28.4151 77.5035 20.5596C80.9244 14.3928 78.9971 1.28343 86.8297 -0.00976562C92.3999 8.78393 96.0229 18.81 99.6755 28.5469C99.9861 32.6699 102.801 38.8519 98.3495 38.5679C97.0926 51.2868 95.8405 64.4976 90.1965 76.1668C88.693 71.6432 94.968 59.0662 95.4215 51.4187C97.1911 40.3327 98.4974 28.3644 92.3949 18.2521C89.9944 12.9576 87.8304 7.56681 85.6615 2.17598C81.5554 11.0762 79.5442 20.8334 75.517 29.8097C73.072 38.6186 76.4535 47.0522 76.3895 56.0944C77.4443 65.4764 79.9681 74.5947 83.2264 83.4391C78.7112 84.712 78.7013 68.362 74.5311 69.6349C71.4799 65.2127 65.964 56.0742 60.5269 50.1711C58.7376 47.4275 50.4662 40.566 56.3173 47.6253C65.614 60.6231 73.284 74.8178 77.7992 90.1535C79.4259 94.236 87.5396 94.2055 83.9904 89.3624C85.9227 94.3425 94.2878 81.1519 89.4423 90.2347C96.8412 86.1878 97.551 75.5379 103.762 69.716C107.129 65.2736 115.824 52.864 118.619 55.0295C108.888 64.5534 101.628 76.0552 95.0469 87.8207C89.9894 90.3513 90.9851 95.017 95.3131 88.8604C100.43 80.8831 104.171 72.0083 111.245 65.3851C115.272 59.9892 122.114 51.368 127.6 50.9977C124.002 53.1784 117.766 60.0856 125.436 54.5629C128.389 52.1642 138.942 46.4386 136.843 45.2367C129.089 45.4497 144.779 41.6513 146.42 39.4047C157.023 30.9812 129.69 46.9356 139.603 39.0091C143.936 36.2047 161.184 27.629 156.555 38.3853C155.096 41.4383 150.487 52.3924 148.939 50.1458C151.497 47.0117 152.705 39.6177 148.717 47.1689C141.663 62.677 128.123 74.3969 113.852 83.3377C109.692 85.067 101.485 90.9193 110.323 86.2993C113.847 85.1684 123.247 76.6942 123.509 79.7218C117.948 84.2302 109.47 91.2185 102.954 88.9669C101.573 94.4692 97.551 90.2803 94.3765 96.0566C102.165 98.0953 91.9612 102.401 95.6532 106.083L94.7117 105.636ZM95.1948 92.6791C106.355 84.5091 118.87 77.8809 128.64 67.865C136.143 64.2339 141.905 56.5813 145.39 49.0858C140.061 50.4196 137.276 61.3991 134.215 60.8615C137.725 50.45 147.672 44.3137 154.337 36.0677C147.022 40.6522 141.486 48.3099 133.604 51.4237C126.176 56.7841 117.963 61.7591 112.275 69.2901C106.71 75.8676 101.953 83.1044 97.1024 90.1383C94.8694 92.0299 89.5901 97.1875 95.1948 92.6791ZM118.111 69.6958C115.035 61.4346 129.276 58.407 125.88 68.5294C124.189 69.8327 119.265 73.4181 118.111 69.6958ZM123.947 64.6954C119.708 66.298 119.477 71.0194 123.588 65.517L123.947 64.6954ZM76.0592 65.7959C74.9304 66.3588 76.6655 69.3103 76.0592 65.7959V65.7959ZM72.9439 64.1274C70.5482 61.7033 74.679 68.5091 72.9439 64.1274V64.1274ZM75.3346 62.7176C73.9692 63.9804 76.2613 65.3446 75.3346 62.7176V62.7176ZM74.7036 57.8897C73.6734 59.6494 75.3149 63.0422 74.7036 57.8897V57.8897ZM74.0283 52.0627C73.0375 53.361 74.5804 58.1788 74.0283 52.0627V52.0627ZM73.353 44.1717C72.3918 45.7996 73.8854 51.6114 73.353 44.1717V44.1717ZM162.031 105.099C163.057 102.933 163.574 107.452 162.031 105.099V105.099ZM78.7407 104.019C75.6846 99.9108 83.3546 106.387 78.7407 104.019V104.019ZM49.8845 103.724C51.2943 105.956 56.8201 101.224 49.8845 103.724V103.724ZM55.3709 102.355C55.2427 106.052 61.3698 96.3811 55.3709 102.355V102.355ZM85.208 102.355C85.5235 99.2414 80.2442 94.9054 86.9924 99.5051C89.4718 100.271 85.8636 104.652 85.208 102.355ZM96.8707 102.076C99.8973 96.3152 107.02 102.264 99.2023 102.289L97.5707 102.294L96.8707 102.076ZM42.6828 101.021C36.9747 103.674 32.0355 94.6518 39.04 94.2613C42.4906 93.5463 55.1293 95.9501 51.0479 99.3225C47.8487 97.3548 31.7841 96.5485 42.7567 99.4138C47.7304 99.287 55.1934 101.939 45.8425 101.584L44.5116 101.468L42.6828 101.021ZM107.158 100.403C114.991 95.8132 124.958 96.3862 133.88 96.4572C138.311 96.8629 145.484 96.4319 148.131 98.4198C140.229 100.966 131.721 97.7808 123.228 98.8052C117.86 98.8458 112.403 101.331 107.158 100.403ZM22.443 98.9219C22.3198 96.1631 25.233 101.493 22.443 98.9219V98.9219ZM107.158 98.0192C109.736 94.4642 124.401 92.2429 122.533 95.3567C117.451 96.2746 112.235 97.5678 107.158 98.0192ZM22.1029 96.5992C23.2465 92.4001 23.9218 98.8458 22.1029 96.5992V96.5992ZM80.4019 96.8629C82.1075 94.1954 82.1075 99.5304 80.4019 96.8629V96.8629ZM100.982 95.4886C101.662 91.4822 107.779 98.9827 101.361 96.5485L100.982 95.4886ZM125.175 94.3881C127.013 95.661 127.413 93.6325 125.175 94.3881V94.3881ZM132.919 94.1853C134.531 88.2924 139.416 94.0585 132.919 94.1853V94.1853ZM75.5613 93.0391C67.9653 87.8004 61.1431 81.5272 55.637 74.194C46.991 70.71 42.6779 61.1708 38.3549 53.5081C38.8724 44.9426 45.0735 63.6406 48.7015 65.6032C55.7307 73.2203 63.4155 80.2543 71.6573 86.5833C72.7615 86.5275 80.1407 97.6033 75.5613 93.0391ZM81.9103 91.9184C78.026 88.9212 80.259 85.0619 82.7335 90.8534C84.7101 93.1507 82.206 92.8768 81.9103 91.9184ZM27.9294 90.681C28.3632 92.9529 30.5222 88.3329 27.9294 90.681V90.681ZM86.5783 86.1218C86.9382 80.1529 90.6401 81.4866 88.0325 86.8369C88.0177 89.4537 85.5481 87.8714 86.5783 86.1218ZM20.3875 85.8784C21.7727 88.2619 23.562 83.3985 20.3875 85.8784V85.8784ZM75.3494 79.8689C74.6149 76.1617 67.0878 64.0818 69.7842 65.2127C72.3573 71.6584 82.4969 80.1985 78.7654 86.3703C77.0007 84.6359 76.3451 82.0698 75.3494 79.8689ZM84.6608 84.1998C82.9011 75.6444 87.86 90.6962 84.6608 84.1998V84.1998ZM91.8626 85.3713C90.6105 80.6042 93.9477 77.4093 93.0998 84.3773C93.2723 84.7526 92.3949 86.6036 91.8626 85.3713ZM82.3145 78.3272C80.0322 74.2498 82.7384 66.8051 83.0539 75.543C82.9405 76.0299 83.1032 79.1234 82.3145 78.3272ZM96.1806 78.8597C99.6558 69.0619 106.177 60.2631 113.571 52.9553C118.87 50.6275 128.916 43.0814 131.425 44.3847C123.509 50.3385 113.591 53.8732 108.322 62.7379C104.107 67.9867 100.474 73.6818 96.1806 78.8597ZM85.5481 77.2115C83.7045 80.9339 91.6752 74.265 85.5481 77.2115V77.2115ZM92.3555 75.4872C93.1146 72.4951 96.2842 59.2285 97.4425 62.1192C96.2447 66.014 94.5392 77.7998 92.178 76.9833L92.3555 75.4872ZM59.1911 71.7091C54.8582 64.2745 65.1358 77.4701 59.1911 71.7091V71.7091ZM60.9016 70.5325C59.2404 67.1094 52.221 59.0916 56.5835 66.582C50.5648 65.517 47.3558 53.3508 55.9969 58.6656C56.3616 63.7522 65.6781 70.0812 63.588 73.2609C62.5529 72.4901 61.7198 71.5113 60.9016 70.5325ZM96.5602 70.776C98.7537 61.8453 99.7347 52.5851 100.479 43.5378C104.196 51.1905 100.223 60.6789 98.5023 68.6561C97.4869 70.5376 95.3377 77.2876 96.5602 70.776ZM81.0822 69.4016C78.6471 57.981 76.6063 45.6373 81.0477 34.4449C85.4643 28.5621 78.0309 49.0098 80.4906 53.7058C80.2738 58.6656 82.487 65.4815 81.0822 69.4016ZM36.2353 67.6267C34.0861 61.7388 40.3611 71.6381 36.2353 67.6267V67.6267ZM65.3133 59.4466C63.2775 55.425 68.7934 61.9975 65.3133 59.4466V59.4466ZM97.2503 57.5296C96.3827 60.6688 99.8431 54.1115 97.2503 57.5296V57.5296ZM87.5593 54.0862C88.343 51.3375 85.0798 39.4757 89.5754 47.1131C90.6007 48.315 89.4176 55.8358 87.5593 54.0862ZM43.2891 53.0973C42.1603 56.6929 47.6121 48.244 43.2891 53.0973V53.0973ZM85.6319 52.3771C83.6898 49.4053 85.3214 38.9635 86.2579 47.7977C86.1889 48.2795 87.2142 54.284 85.6319 52.3771ZM90.3493 33.0148C90.2211 30.256 93.1393 35.586 90.3493 33.0148V33.0148ZM82.1666 24.7789C83.5468 16.5177 85.346 23.8914 81.6934 27.1777L82.1666 24.7789ZM83.1475 18.597C84.1679 16.4315 84.6904 20.9551 83.1475 18.597V18.597ZM83.3792 16.2337C83.4236 10.2039 88.0966 10.6755 84.646 16.3808C84.7298 17.2328 82.3342 17.5726 83.3792 16.2337Z" fill="#A24009"/>
</g>
<mask id="mask1_696_488" style="mask-type:luminance" maskUnits="userSpaceOnUse" x="176" y="154" width="142" height="150">
<path d="M176.667 154.595H318V303.895H176.667V154.595Z" fill="white"/>
</mask>
<g mask="url(#mask1_696_488)">
<mask id="mask2_696_488" style="mask-type:luminance" maskUnits="userSpaceOnUse" x="150" y="127" width="200" height="205">
<path d="M282.876 127.315L349.106 263.075L216.305 331.65L150.075 195.89L282.876 127.315Z" fill="white"/>
</mask>
<g mask="url(#mask2_696_488)">
<mask id="mask3_696_488" style="mask-type:luminance" maskUnits="userSpaceOnUse" x="150" y="127" width="200" height="205">
<path d="M282.877 127.315L349.107 263.075L216.306 331.65L150.076 195.89L282.877 127.315Z" fill="white"/>
</mask>
<g mask="url(#mask3_696_488)">
<path d="M178.76 248.348C183.408 245.402 189.969 240.052 193.375 238.464C190.822 244.256 183.783 244.89 180.475 249.946C185.577 251.376 190.605 252.04 195.756 252.177C201.977 252.649 208.114 251.498 214.35 252.39C220.999 248.719 227.585 244.829 234.136 241.061C229.739 246.553 222.744 249.652 216.755 253.207C209.928 255.088 202.15 253.323 194.879 254.251C189.989 252.74 178.883 255.626 178.144 249.068L178.755 248.348H178.76ZM192.464 244.317C189.028 247.222 197.417 243.125 192.464 244.317V244.317ZM219.102 298.788C220.053 290.41 218.096 281.819 219.294 273.543C221.675 262.482 225.303 250.732 233.544 243.135C231.331 248.708 226.318 254.611 224.006 260.89C220.393 268.994 218.825 278.193 220.437 287.205C220.551 290.253 220.107 301.43 222.38 292.844C225.11 285.648 225.766 278.29 226.417 270.688C228.374 260.54 233.707 251.787 237.986 242.674C238.972 239.757 242.659 235.452 240.45 241.609C237.675 248.571 233.579 254.789 230.745 261.742C226.85 269.151 227.984 277.818 227.077 285.775C226.17 290.212 222.37 297.667 221.645 299.782C225.199 293.559 230.473 288.671 233.613 282.22C238.311 271.078 241.495 258.77 240.938 246.371C242.259 245.285 241.047 232.637 243.211 238.906C242.812 249.363 242.826 259.982 240.184 270.115C237.828 279.694 233.53 288.792 227.861 296.551C225.52 298.438 218.436 308.322 219.102 298.788ZM195.584 246.436C198.172 248.84 202.233 245.184 195.584 246.436V246.436ZM198.265 250.656C210.352 246.492 223.148 242.912 232.909 234.027C240.169 230.462 225.485 234.488 222.212 234.321C214.064 235.792 204.738 236.918 199.192 243.906C193.686 245.853 202.795 237.658 205.122 237.389C211.747 235.878 212.965 231.826 219.501 232.384C222.69 231.643 232.061 231.912 231.026 230.923C220.807 230.766 210.697 232.551 200.863 234.97C204.654 231.364 212.082 230.381 217.682 229.382C222.311 228.428 234.082 228.2 233.328 231.486C236.305 233.535 235.694 225.507 237.513 229.442C238.957 233.444 237.705 234.996 235.304 234.331C228.137 240.843 219.028 244.474 210.441 248.526C206.803 249.718 201.114 251.604 198.265 250.656ZM176.892 203.31C183.004 200.237 191.054 201.367 197.91 201.469C191.921 203.817 185.074 202.965 179.016 204.542C183.63 209.284 188.84 213.777 193.223 218.909C195.781 221.293 205.935 226.947 196.9 222.52C190.6 218.879 185.567 213.341 179.968 208.66C178.79 207.139 176.069 205.643 176.892 203.305V203.31ZM201.464 247.111C197.777 248.419 207.36 248.151 201.464 247.111V247.111ZM183.142 205.044C185.139 207.519 188.136 205.404 183.142 205.044V205.044ZM188.037 208.726C187.81 211.495 192.291 209.37 188.037 208.726V208.726ZM188.456 206.028C189.836 209.532 195.204 206.033 188.456 206.028V206.028ZM192.449 210.805C198.842 212.545 202.928 219.097 209.499 220.826C213.472 224.65 222.439 222.104 228.773 223.636C232.8 224.341 235.496 223.362 230.197 221.156C220.704 214.492 209.899 209.035 198.477 208.528C199.379 204.253 209.253 209.69 212.309 208.518C221.216 211.287 228.512 218.098 235.876 223.768C232.268 227.784 222.695 223.808 216.957 224.65C209.756 224.954 203.702 219.406 197.965 215.227C197.669 212.692 191.966 213.985 192.449 210.805ZM195.835 208.422C190.975 207.696 200.745 210.815 195.835 208.422V208.422ZM211.836 241.517C208.863 245.113 218.52 239.661 211.836 241.517V241.517ZM202.766 223.225C211.067 224.929 219.432 225.679 227.826 226.146C231.223 227.88 237.981 226.369 237.522 223.544C237.655 230.426 227.649 227.49 222.877 227.596C215.971 227.302 209.12 226.618 202.766 223.225ZM212.265 239.692C208.099 242.136 217.312 238.738 212.265 239.692V239.692ZM224.849 260.484C228.147 252.517 233.515 245.767 237.902 238.616C238.479 244.129 231.647 249.281 229.192 254.622C228.191 255.763 221.374 270.013 224.849 260.484ZM218.308 248.719C215.858 249.195 221.556 249.388 218.308 248.719V248.719ZM238.134 283.797C240.441 277.255 245.153 272.037 245.187 264.394C245.345 261.113 246.439 255.002 248.258 257.882C246.607 253.186 246.41 244.352 248.229 241.745C249.515 251.675 249.713 261.914 253.543 271.367C253.626 277.397 258.541 282.965 261.094 287.033C255.45 282.149 251.704 274.983 248.82 267.995C246.578 257.979 246.987 273.365 244.399 275.571C240.017 276.996 241.067 284.35 237.621 284.979L237.715 284.426L238.134 283.797ZM253.395 274.04C253.518 272.544 248.5 263.141 250.989 268.852C251.763 270.074 252.374 274.456 253.395 274.04ZM249.994 265.043C248.983 261.772 249.525 266.423 249.994 265.043V265.043ZM231.558 268.132C234.654 260.631 233.337 267.564 233.214 269.592C235.487 267.452 234.757 256.954 237.858 259.642C237.67 263.253 235.556 276.54 231.237 269.734L231.558 268.132ZM217.066 239.428C220.137 238.211 225.539 236.958 219.841 239.413C219.402 239.6 216.39 240.954 217.066 239.428ZM221.325 247.228C224.435 247.603 225.386 243.383 221.325 247.228V247.228ZM217.707 237.257C219.318 234.483 230.069 235.163 223.099 236.563C222.656 236.405 216.07 239.129 217.707 237.257ZM203.993 202.97C214.177 204.37 223.503 210.242 231.647 216.749C235.23 223.118 224.425 213.163 221.561 212.23C216.376 208.295 208.089 206.505 203.993 202.97ZM213.388 217.652C212.836 212.59 220.408 216.105 220.285 218.732C217.046 217.053 213.393 216.683 218.934 219.173C223.962 222.49 209.568 218.356 213.388 217.652ZM226.698 243.744C229.473 240.858 234.654 235.082 236.364 237.922C234.53 239.053 226.52 245.848 226.698 243.744ZM234.466 260.52C234.875 263.638 235.896 257.953 234.466 260.52V260.52ZM242.57 271.205C241.619 278.863 245.523 263.836 242.57 271.205V271.205ZM243.107 255.626C242.861 248.759 247.051 239.783 241.53 234.676C247.894 235.148 245.754 246.305 245.735 251.493C245.394 254.738 245.133 266.646 243.62 259.409C242.447 258.978 243.275 256.615 243.107 255.626ZM263.835 289.979C267.971 295.527 260.789 288.326 262.972 289.228L263.835 289.979ZM216.957 193.634C217.406 189.653 220.94 200.282 222.611 201.844C226.146 207.301 230.547 212.296 235.703 216.1C233.963 214.168 227.93 207.514 233.214 211.794C231.464 207.382 232.711 208.259 235.107 211.454C237.212 214.441 241.875 221.328 239.943 213.513C239.933 204.481 237.956 195.596 235.201 187.021C235.26 183.947 230.789 175.159 235.142 181.888C240.095 192.295 240.317 204.06 242.457 215.167C244.527 210.957 239.874 203.751 241.441 200.252C243.576 209.056 243.344 192.812 240.805 198.832C240.973 195.764 237.025 186.052 240.204 186.869C241.377 194.334 245.809 201.144 244.975 209.086C244.892 212.129 246.617 216.389 242.324 216.394C244.458 219.898 248.032 216.313 246.001 212.443C245.799 200.896 247.711 188.598 254.504 179.439C252.961 186.777 248.372 195.784 248.209 204.446C247.913 210.46 247.711 218.859 244.803 220.862C243.709 225 234.259 222.277 238.459 218.169C234.594 213.605 238.735 220.684 234.166 217.413C225.731 212.078 220.822 202.787 216.957 193.639V193.634ZM239.987 220.983C235.442 222.905 242.885 218.443 239.987 220.983V220.983ZM243.063 220.06C240.795 219.797 243.802 218.498 243.063 220.06V220.06ZM266.024 293.909C267.389 298.25 268.439 295.136 266.024 293.909V293.909ZM238.858 234.504C240.164 232.784 236.689 224.442 239.933 230.381C243.768 231.522 237.054 238.921 238.858 234.504ZM268.099 297.185C272.994 298.666 265.935 288.787 265.161 285.968C262.662 279.694 270.45 289.548 269.933 292.383C270.677 295.547 273.053 302.49 271.633 295.01C269.464 289.071 273.501 284.766 270.184 278.112C271.781 272.341 273.043 264.394 269.282 258.496C267.212 252.907 259.763 247.816 260.246 242.415C267.103 243.475 271.658 251.721 278.46 249.824C283.626 251.771 280.447 251.158 277.193 250.884C278.184 257.994 287.496 253.937 292.213 255.59C296.24 255.681 298.35 257.233 292.997 256.757C286.14 255.636 279.264 258.552 273.211 253.481C271.392 250.864 264.151 245.965 263.16 246.102C266.093 252.41 273.383 256.66 273.245 264.08C273.911 271.327 270.721 278.396 273.842 285.156C273.708 289.654 277.386 300.573 272.136 301.557C270.642 300.816 267.976 299.077 268.099 297.185ZM252.532 260.915C249.624 254.099 249.747 246.335 249.072 239.139C251.127 245.564 252.951 252.101 253.7 258.805C254.139 263.938 260.251 273.081 259.33 275.318C256.495 270.865 254.144 265.971 252.532 260.915ZM214.059 176.858C213.177 169.859 219.821 159.935 226.698 166.274C233.116 170.879 237.473 177.157 240.726 184.105C244.507 188.466 240.943 189.79 239.031 184.419C236.147 177.436 231.021 172.131 225.165 167.826C222.192 165.112 217.465 166.842 222.912 169.646C225.303 173.85 230.602 177.765 231.321 181.701C226.362 179.272 224.327 169.017 219.693 168.815C222.882 169.814 227.25 180.884 222.242 174.114C219.757 171.949 216.524 166.046 216.218 172.882C216.154 176.427 213.231 186.017 214.059 176.858ZM261.262 277.118C262.218 281.495 268.247 278.102 261.262 277.118V277.118ZM221.724 192.264C220.891 188.74 219.476 178.506 223.41 179.099C222.079 186.656 222.665 194.754 227.659 201.317C229.128 203.66 234.417 210.597 229.29 205.465C226.254 201.464 223.277 197.138 221.724 192.264ZM235.398 220.294C234.772 224.107 238.074 220.958 235.398 220.294V220.294ZM258.837 265.327C255.958 260.712 261.277 256.767 262.548 263.309C264.796 265.834 264.855 273.862 261.972 269.841C260.863 272.807 258.497 266.494 258.837 265.327ZM261.839 268.258C261.715 264.698 258.033 258.952 260.468 265.535C260.404 265.921 261.089 269.82 261.839 268.258ZM245.809 236.568C247.189 231.42 252.153 237.612 250.457 231.958C256.086 226.81 246.923 224.457 246.336 221.054C250.733 217.256 255.036 210.942 259.172 205.754C265.629 195.748 273.536 185.307 272.846 172.304C270.721 167.395 276.03 159.717 274.33 157.257C273.235 164.195 268.651 170.519 266.324 176.858C266.211 169.925 269.844 164.164 273.275 158.636C267.512 160.944 263.48 169.068 258.181 173.348C251.852 180.433 259.842 168.287 262.366 166.639C266.472 164.129 271.643 152.074 276.301 156.263C277.652 163.713 275.527 171.147 275.991 178.638C274.837 186.153 273.975 194.166 270.327 200.784C264.146 208.721 275.286 198.751 278.455 197.843C284.632 195.682 291.262 194.334 297.872 194.105C303.294 194.405 311.566 188.38 315.218 193.593C311.176 200.723 305.601 206.88 300.238 212.961C297.527 214.639 294.298 218.853 292.923 215.532C283.784 219.112 274.32 222.87 264.353 222.905C266.911 220.218 277.721 220.324 283.109 217.951C291.306 215.319 299.942 212.043 304.704 204.06C307.469 200.455 310.392 196.986 313.311 193.517C305.783 193.689 298.404 195.677 290.848 195.931C283.966 197.27 279.397 202.691 273.201 205.835C267.157 209.913 261.819 214.954 256.924 220.431C254.459 217.611 265.629 211.84 263.288 209.269C265.235 205.501 269.533 198.289 271.648 192.275C272.89 190.008 274.66 181.61 271.899 188.334C266.3 199.643 259.305 210.197 250.422 218.874C248.204 221.491 251.088 227.348 253.148 223.073C250.427 226.227 262.391 227.622 254.474 227.323C259.852 231.248 267.379 228.002 273.551 230.441C277.77 231.309 289.32 233.215 288.827 236.005C278.884 232.328 268.464 231.136 258.102 230.528C254.588 227.759 251.748 230.127 257.486 231.08C264.737 231.968 272.126 231.542 279.145 234.321C284.252 235.33 292.563 237.237 294.747 241.076C291.991 239.24 285.071 237.171 291.548 240.767C294.229 242.06 301.865 247.669 301.948 245.726C299.065 240.194 307.193 250.204 309.308 250.595C318.807 255.296 298.261 241.152 307.174 245.529C310.619 247.669 322.568 257.117 313.582 257.568C310.984 257.588 301.87 258.121 302.86 256.209C305.902 256.949 311.383 255.215 304.812 254.997C291.73 255.367 278.943 249.707 267.803 242.547C265.151 240.143 258.255 236.273 264.53 241.035C266.546 243.186 275.651 246.994 273.679 248.252C268.636 245.818 260.868 242.156 260.108 236.649C255.859 237.587 257.304 233.205 252.236 232.947C253.592 239.301 247.051 233.439 245.838 237.404L245.809 236.568ZM254.834 232.343C264.353 237.536 273.299 244.246 283.592 247.78C288.718 251.924 295.979 253.389 302.333 253.268C299.538 249.885 291.055 251.746 290.34 249.337C298.695 248.206 306.395 253.237 314.38 255.144C308.667 251.472 301.485 250.169 296.576 245.569C290.296 242.085 283.996 237.901 276.843 236.446C270.386 234.742 263.761 233.854 257.245 232.825C255.164 231.882 249.777 229.884 254.834 232.343ZM278.623 240.807C283.183 235.67 290.276 244.9 282.162 246.016C280.678 245.255 276.489 242.957 278.623 240.807ZM284.099 243.267C281.507 240.767 278.199 242.268 283.414 243.297L284.099 243.267ZM266.453 209.02C264.264 210.699 265.669 208.401 266.453 209.02V209.02ZM266.492 206.18C264.111 208.98 267.305 203.589 266.492 206.18V206.18ZM268.296 207.407C266.832 209.005 266.955 206.87 268.296 207.407V207.407ZM271.372 205.252C268.069 207.509 269.809 205.125 271.372 205.252V205.252ZM275.118 202.706C271.135 205.267 273.881 202.448 275.118 202.706V202.706ZM280.274 199.43C275.379 202.443 278.82 199.314 280.274 199.43V199.43ZM269.928 285.065C268.868 287.012 271.771 285.045 269.928 285.065V285.065ZM241.279 224.447C241.288 228.616 243.009 220.786 241.279 224.447V224.447ZM231.297 203.472C230.271 205.277 235.457 207.605 231.297 203.472V203.472ZM234.17 206.956C231.597 208.168 240.372 209.187 234.17 206.956V206.956ZM244.699 228.535C246.937 227.662 248.037 222.317 247.277 228.824C247.627 230.888 243.359 229.823 244.699 228.535ZM249.003 236.872C254.006 237.029 252.458 244.281 249.678 238.637L249.101 237.455L249.003 236.872ZM230.607 197.31C226.781 194.121 231.198 187.36 233.939 192.29C235.644 194.536 238.464 204.522 234.718 202.762C234.934 199.755 229.818 187.847 231.73 196.798C233.569 200.348 234.392 206.682 231.336 199.795L230.947 198.791L230.607 197.31ZM253.779 243.723C259.675 247.765 262.8 255.179 265.9 261.656C267.187 265.003 270.011 270.044 269.588 272.655C265.062 267.837 264.234 260.565 260.542 254.784C258.62 250.914 254.997 247.846 253.779 243.723ZM224.898 181.934C224.129 184.855 226.742 180.869 224.898 181.934V181.934ZM255.406 242.881C258.743 243.495 265.437 253.313 262.652 253.06C260.232 249.707 257.506 246.391 255.406 242.881ZM226.367 180.864C225.475 182.974 229.64 180.21 226.367 180.864V180.864ZM246.76 223.124C245.537 225.299 249.18 223.418 246.76 223.124V223.124ZM254.957 237.521C257.935 236.598 254.967 243.667 254.366 238.17L254.957 237.521ZM264.244 254.632C264.022 256.407 265.55 255.986 264.244 254.632V254.632ZM267.113 260.165C269.494 264.815 271.712 259.247 267.113 260.165V260.165ZM247.662 218.275C248.559 210.932 250.437 203.781 253.508 197.214C252.838 189.729 257.831 183.248 261.543 177.416C267.576 174.768 256.993 185.849 256.929 189.166C254.208 196.94 252.108 204.978 250.693 213.174C251.122 213.949 246.159 223.195 247.662 218.275ZM250.669 222.469C251.344 218.6 254.77 218.853 251.684 222.687C250.812 224.929 250.117 223.022 250.669 222.469ZM232.465 182.994C231.065 184.105 234.984 184.039 232.465 182.994V182.994ZM256.273 223.798C260.478 221.952 260.873 225.106 256.298 225.106C254.504 226.014 254.716 223.671 256.273 223.798ZM233.086 175.838C231.947 177.684 235.901 177.263 233.086 175.838V175.838ZM256.584 213.473C258.861 211.632 264.456 201.93 264.639 204.278C261.139 208.412 258.881 218.762 253.345 218.24C253.907 216.348 255.431 214.969 256.584 213.473ZM256.909 221.734C253.602 226.339 262.134 217.444 256.909 221.734V221.734ZM258.649 227.358C261.469 224.767 264.826 226.055 259.763 227.901C259.571 228.159 257.999 228.175 258.649 227.358ZM260.099 217.966C262.075 214.878 268.119 214.208 262.263 217.52C261.888 217.606 259.832 218.818 260.099 217.966ZM264.624 228.185C272.545 227.241 280.861 228.854 288.462 231.618C291.922 234.63 300.622 239.235 300.618 241.507C293.756 237.886 287.841 231.958 279.924 231.273C274.852 230.081 269.676 229.463 264.624 228.185ZM262.001 219.913C258.807 219.893 266.172 223.306 262.001 219.913V219.913ZM265.58 224.229C267.892 223.717 278.076 221.333 276.508 223.189C273.423 223.697 264.772 226.623 264.496 224.625L265.58 224.229ZM256.456 198.908C254.622 205.237 260.01 193.152 256.456 198.908V198.908ZM257.866 199.729C259.62 197.321 262.622 189.414 259.044 195.211C257.644 190.484 264.826 183.871 264.244 191.996C260.902 194.055 259.862 203.021 256.954 202.635C257.111 201.616 257.486 200.668 257.866 199.729ZM270.283 225.603C277.159 224.036 283.833 221.48 290.276 218.828C286.357 224.219 278.475 224.691 272.417 226.263C270.771 226.192 265.403 227.018 270.283 225.603ZM265.762 213.924C272.703 208.133 280.422 202.301 289.635 201.565C295.21 202.686 278.618 204.522 276.277 207.96C272.811 209.553 268.932 213.559 265.762 213.924ZM251.147 180.864C249.865 185.261 254.415 177.233 251.147 180.864V180.864ZM267 199.009C266.482 202.427 269.031 196.114 267 199.009V199.009ZM279.579 221.43C277.129 221.911 282.828 222.099 279.579 221.43V221.43ZM278.51 213.209C280.664 212.803 287.619 206.256 283.986 212.205C283.523 213.371 277.972 215.167 278.51 213.209ZM263.564 180.839C260.71 181.29 268.409 182.254 263.564 180.839V180.839ZM278.998 211.211C280.343 208.756 288.053 206.251 282.35 210.05C281.995 210.166 278.253 213.026 278.998 211.211ZM293.894 207.788C293.12 210.714 295.733 206.728 293.894 207.788V207.788ZM296.635 198.964C302.762 197.047 298.36 200.952 294.826 199.471L296.635 198.964ZM301.204 197.493C300.139 199.44 303.043 197.468 301.204 197.493V197.493ZM302.9 196.829C307.036 194.734 308.362 198.274 303.245 197.797C302.693 198.157 301.613 196.545 302.9 196.829Z" fill="#A24009"/>
</g>
</g>
</g>
</svg>
